<?xml version="1.0" encoding="UTF-8"?>
<!DOCTYPE svg PUBLIC "-//W3C//DTD SVG 1.1//EN" "http://www.w3.org/Graphics/SVG/1.1/DTD/svg11.dtd">
<!-- Creator: CorelDRAW X7 -->
<svg xmlns="http://www.w3.org/2000/svg" xml:space="preserve" width="188.517mm" height="55.4046mm" version="1.1" style="shape-rendering:geometricPrecision; text-rendering:geometricPrecision; image-rendering:optimizeQuality; fill-rule:evenodd; clip-rule:evenodd"
viewBox="0 0 12019 3532"
 xmlns:xlink="http://www.w3.org/1999/xlink">
 <defs>
  <style type="text/css">
   <![CDATA[
    .fil2 {fill:#06B8BA}
    .fil1 {fill:#DEB853}
    .fil0 {fill:#E05F4E}
    .fil3 {fill:#E05F4E;fill-rule:nonzero}
   ]]>
  </style>
 </defs>
 <g id="Capa_x0020_1">
  <metadata id="CorelCorpID_0Corel-Layer"/>
  <g id="_2309225208688">
   <path class="fil0" d="M2290 3302l0 -1532 606 0c66,0 140,-73 140,-139l0 -473c0,-66 -74,-140 -140,-140l-2255 0c-65,0 -138,73 -138,138l0 475c0,65 72,139 138,139l609 0 0 1533c-641,-216 -1101,-821 -1101,-1535 0,-894 725,-1619 1619,-1619 895,0 1620,725 1620,1619 0,712 -460,1317 -1098,1534zm-900 -1532c0,-65 -74,-139 -140,-139l-609 0 0 -475 2255 0 0 475 -606 0c-66,0 -140,74 -140,139l0 1725c793,-174 1387,-881 1387,-1727 0,-976 -792,-1768 -1769,-1768 -976,0 -1768,792 -1768,1768 0,847 595,1555 1390,1728l0 -1726z"/>
   <path class="fil1" d="M1159 1361l137 -74 -327 -175 0 -366 504 272 272 0 -854 -461c-15,-8 -45,8 -45,26l0 524c0,36 0,86 32,102l281 152zm568 -205l273 0 647 350c26,14 45,48 45,78l0 549c0,20 -35,38 -53,29l-611 -331 0 1687c-41,7 -82,12 -123,14l0 -1800c0,-39 58,-85 92,-67l571 309 0 -363 -841 -455zm-183 508c27,-15 92,24 92,68l0 -151c0,-56 -25,-124 -73,-150l-131 -70 -137 74 218 118 0 128 31 -17z"/>
   <path class="fil2" d="M1811 1156l-273 0 -646 350c-27,14 -46,48 -46,78l0 549c0,20 35,38 53,29l614 -332 0 1689c41,6 82,11 123,13l0 -1800c0,-39 -61,-85 -94,-67l-572 309 0 -363 841 -455zm569 205l-137 -74 327 -175 0 -366 -504 272 -273 0 854 -461c15,-8 45,8 45,26l0 524c0,36 0,86 -31,102l-281 152zm-274 0l137 74 -215 116 0 131 -33 -18c-29,-16 -90,27 -90,67l0 -150c0,-56 22,-124 71,-150l130 -70z"/>
   <path class="fil3" d="M4438 2121l0 -554 -202 0 0 -130 576 0 0 130 -202 0 0 554 -172 0zm1570 0l-172 0 0 -303 -233 0 0 303 -171 0 0 -684 171 0 0 250 233 0 0 -250 172 0 0 684zm1322 0l-209 0 -190 -251 -61 0 0 251 -171 0 0 -684 275 0c38,0 71,2 99,7 28,5 54,14 78,29 24,16 43,36 58,60 14,24 21,54 21,91 0,53 -11,95 -35,128 -24,32 -55,58 -95,78l230 291zm-276 -475c0,-18 -3,-32 -10,-45 -7,-12 -17,-22 -32,-29 -11,-4 -23,-7 -36,-8 -13,-2 -30,-2 -49,-2l-57 0 0 184 49 0c24,0 44,-1 60,-4 17,-3 31,-9 43,-19 10,-8 19,-19 24,-30 5,-12 8,-28 8,-47zm877 475l0 -684 462 0 0 130 -291 0 0 120 268 0 0 131 -268 0 0 172 291 0 0 131 -462 0zm1054 0l231 -684 187 0 231 684 -176 0 -43 -138 -216 0 -42 138 -172 0zm392 -264l-70 -227 -70 227 140 0zm1483 -78c0,64 -14,121 -41,172 -28,50 -63,89 -106,116 -35,23 -74,38 -115,44 -42,7 -86,10 -133,10l-214 0 0 -684 212 0c48,0 93,3 134,9 42,6 82,21 118,44 45,29 80,68 106,117 26,49 39,106 39,172zm-176 -1c0,-45 -8,-83 -23,-115 -15,-32 -39,-57 -71,-75 -23,-13 -48,-20 -73,-21 -25,-2 -56,-2 -91,-2l-3 0 0 427 3 0c38,0 71,-1 97,-2 26,-1 51,-10 75,-25 28,-17 49,-42 64,-73 15,-31 22,-69 22,-114zm1039 355c-52,0 -98,-5 -137,-15 -40,-10 -76,-23 -110,-38l0 -162 15 0c34,29 72,51 113,67 41,15 81,23 120,23 10,0 22,-1 38,-3 16,-2 29,-6 39,-10 12,-5 22,-13 30,-22 9,-9 13,-22 13,-37 0,-17 -7,-31 -21,-42 -13,-10 -29,-18 -48,-23 -23,-6 -48,-12 -74,-18 -26,-5 -51,-12 -74,-20 -53,-18 -90,-44 -113,-75 -23,-32 -35,-71 -35,-119 0,-64 27,-115 81,-155 55,-40 122,-60 203,-60 41,0 81,4 121,13 40,8 76,19 108,33l0 157 -15 0c-25,-22 -56,-40 -93,-55 -36,-15 -74,-22 -112,-22 -15,0 -28,1 -40,3 -12,2 -25,6 -38,12 -10,5 -20,12 -27,22 -8,9 -12,20 -12,32 0,17 6,31 18,41 13,11 37,20 72,28 23,5 45,10 66,15 21,5 44,12 68,20 47,18 83,41 106,70 23,28 34,67 34,114 0,68 -26,123 -80,164 -53,42 -125,62 -216,62z"/>
  </g>
 </g>
</svg>
