<?xml version="1.0" encoding="UTF-8"?>
<!DOCTYPE svg PUBLIC "-//W3C//DTD SVG 1.1//EN" "http://www.w3.org/Graphics/SVG/1.1/DTD/svg11.dtd">
<!-- Creator: CorelDRAW X7 -->
<svg xmlns="http://www.w3.org/2000/svg" xml:space="preserve" width="41.7516mm" height="41.7021mm" version="1.1" style="shape-rendering:geometricPrecision; text-rendering:geometricPrecision; image-rendering:optimizeQuality; fill-rule:evenodd; clip-rule:evenodd"
viewBox="0 0 1307 1306"
 xmlns:xlink="http://www.w3.org/1999/xlink">
 <defs>
  <style type="text/css">
   <![CDATA[
    .fil0 {fill:#FEFEFE}
   ]]>
  </style>
 </defs>
 <g id="Capa_x0020_1">
  <metadata id="CorelCorpID_0Corel-Layer"/>
  <path class="fil0" d="M846 1220l0 -491 130 70c6,4 19,-3 19,-11l0 -134 76 0c24,0 51,-27 51,-51l0 -175c0,-24 -27,-52 -51,-52l-76 0 0 -161c0,-6 -11,-12 -17,-9l-315 170 -18 0 -316 -170c-5,-3 -16,3 -16,9l0 161 -76 0c-24,0 -51,27 -51,51l0 176c0,24 27,51 51,51l76 0 0 134c0,8 13,15 19,11l130 -70 0 492c-237,-80 -407,-304 -407,-567 0,-331 268,-599 599,-599 330,0 598,268 598,599 0,263 -170,486 -406,566zm104 -844l-187 0 187 -100 0 100zm-591 278l103 0 0 20 -103 56 0 -76zm210 -227l-90 49 -90 -49 180 0zm-141 76l-98 53c-10,6 -17,18 -17,30l0 17 -76 0 0 -176 77 0c1,9 4,16 10,20l104 56zm86 198l45 -25 0 625c15,2 31,4 46,5l0 -666c0,0 0,-1 0,-1l0 -55c0,-20 -9,-46 -27,-55l-49 -26 125 -67 124 67 -48 26c-18,9 -26,35 -26,55l0 56 0 0 0 666c15,-1 30,-3 45,-6l0 -623 46 24 0 591c293,-65 512,-326 512,-638 0,-361 -292,-654 -653,-654 -361,0 -654,293 -654,654 0,313 220,574 514,638l0 -591zm45 -80l-46 25c-5,-22 -29,-43 -51,-43l-103 0 0 -8 120 -65 80 44 0 47zm270 -145l90 -49 -180 0 90 49zm165 -49c-1,9 -4,16 -11,20l-103 56 98 53c10,6 17,18 17,30l0 17 76 0 0 -176 -77 0zm-165 103l-80 43 0 49 46 25c5,-22 30,-44 51,-44l103 0 0 -8 -120 -65zm17 144l0 -20 103 0 0 76 -103 -56zm-302 -298l-186 0 0 -100 186 100z"/>
 </g>
</svg>
