<?xml version="1.0" encoding="UTF-8"?>
<!DOCTYPE svg PUBLIC "-//W3C//DTD SVG 1.1//EN" "http://www.w3.org/Graphics/SVG/1.1/DTD/svg11.dtd">
<!-- Creator: CorelDRAW X7 -->
<svg xmlns="http://www.w3.org/2000/svg" xml:space="preserve" width="66.5149mm" height="72.5856mm" version="1.1" style="shape-rendering:geometricPrecision; text-rendering:geometricPrecision; image-rendering:optimizeQuality; fill-rule:evenodd; clip-rule:evenodd"
viewBox="0 0 857 935"
 xmlns:xlink="http://www.w3.org/1999/xlink">
 <defs>
  <style type="text/css">
   <![CDATA[
    .fil2 {fill:#06B8BA}
    .fil1 {fill:#DEB853}
    .fil0 {fill:#E05F4E}
    .fil3 {fill:#E05F4E;fill-rule:nonzero}
   ]]>
  </style>
 </defs>
 <g id="Capa_x0020_1">
  <metadata id="CorelCorpID_0Corel-Layer"/>
  <g id="_2309135102656">
   <path class="fil0" d="M533 667l0 -309 123 0c13,0 28,-15 28,-29l0 -95c0,-13 -15,-28 -28,-28l-456 0c-13,0 -28,14 -28,28l0 95c0,14 15,29 28,29l123 0 0 309c-129,-43 -222,-166 -222,-310 0,-181 146,-327 327,-327 181,0 327,146 327,327 0,144 -93,266 -222,310zm-181 -309c0,-14 -15,-29 -29,-29l-123 0 0 -95 456 0 0 95 -123 0c-13,0 -28,15 -28,29l0 348c160,-35 280,-178 280,-349 0,-197 -160,-357 -357,-357 -197,0 -357,160 -357,357 0,171 120,314 281,349l0 -348z"/>
   <path class="fil1" d="M305 275l28 -15 -66 -35 0 -74 101 55 55 0 -172 -94c-3,-1 -9,2 -9,6l0 106c0,7 0,17 6,20l57 31zm115 -41l55 0 131 70c5,3 9,10 9,16l0 111c0,4 -7,8 -11,6l-124 -67 0 341c-8,1 -16,2 -24,2l0 -363c0,-8 11,-17 18,-14l116 63 0 -74 -170 -91zm-37 102c5,-3 18,5 18,14l0 -31c0,-11 -5,-25 -14,-30l-27 -14 -27 15 44 24 0 25 6 -3z"/>
   <path class="fil2" d="M437 234l-55 0 -131 70c-5,3 -9,10 -9,16l0 111c0,4 7,8 11,6l124 -67 0 341c8,1 16,2 24,2l0 -363c0,-8 -12,-17 -19,-14l-115 63 0 -74 170 -91zm115 41l-28 -15 66 -35 0 -74 -102 55 -55 0 173 -94c3,-1 9,2 9,6l0 106c0,7 0,17 -7,20l-56 31zm-56 0l28 15 -44 23 0 27 -6 -4c-6,-3 -18,6 -18,14l0 -31c0,-11 4,-25 14,-30l26 -14z"/>
   <path class="fil3" d="M22 933l0 -60 -22 0 0 -15 63 0 0 15 -22 0 0 60 -19 0zm173 0l-19 0 0 -33 -26 0 0 33 -18 0 0 -75 18 0 0 28 26 0 0 -28 19 0 0 75zm145 0l-23 0 -20 -27 -7 0 0 27 -19 0 0 -75 30 0c4,0 8,0 11,1 3,1 6,2 9,3 2,2 5,4 6,7 2,2 3,6 3,10 0,6 -2,10 -4,14 -3,3 -6,6 -11,8l25 32zm-30 -52c0,-2 0,-3 -1,-5 -1,-1 -2,-2 -4,-3 -1,0 -2,-1 -3,-1 -2,0 -4,0 -6,0l-6 0 0 20 5 0c3,0 5,0 7,0 2,-1 3,-1 5,-2 1,-1 2,-2 2,-4 1,-1 1,-3 1,-5zm97 52l0 -75 50 0 0 15 -32 0 0 13 30 0 0 14 -30 0 0 19 32 0 0 14 -50 0zm116 0l25 -75 21 0 25 75 -19 0 -5 -15 -24 0 -5 15 -18 0zm43 -29l-8 -25 -8 25 16 0zm163 -8c0,7 -2,13 -5,19 -3,5 -7,9 -11,12 -4,3 -8,5 -13,5 -5,1 -9,1 -15,1l-23 0 0 -75 23 0c6,0 10,1 15,1 5,1 9,3 13,5 5,3 9,8 12,13 3,5 4,12 4,19zm-19 0c0,-5 -1,-9 -3,-13 -2,-3 -4,-6 -8,-8 -2,-2 -5,-2 -8,-3 -3,0 -6,0 -10,0l0 0 0 47 0 0c4,0 8,0 11,0 3,0 6,-1 8,-3 3,-2 6,-4 7,-8 2,-3 3,-7 3,-12zm114 39c-6,0 -11,-1 -15,-2 -5,-1 -9,-2 -12,-4l0 -18 1 0c4,3 8,6 13,7 4,2 9,3 13,3 1,0 2,0 4,0 2,-1 3,-1 5,-2 1,0 2,-1 3,-2 1,-1 1,-2 1,-4 0,-2 -1,-3 -2,-5 -1,-1 -3,-2 -5,-2 -3,-1 -6,-1 -8,-2 -3,-1 -6,-1 -9,-2 -5,-2 -10,-5 -12,-9 -3,-3 -4,-7 -4,-13 0,-7 3,-12 9,-17 6,-4 13,-6 22,-6 5,0 9,0 14,1 4,1 8,2 12,4l0 17 -2 0c-3,-2 -6,-4 -10,-6 -4,-2 -8,-2 -13,-2 -1,0 -3,0 -4,0 -1,0 -3,1 -4,1 -1,1 -2,2 -3,3 -1,1 -2,2 -2,3 0,2 1,4 2,5 2,1 4,2 8,3 3,0 5,1 8,1 2,1 4,2 7,3 5,2 9,4 12,7 2,3 4,8 4,13 0,7 -3,13 -9,18 -6,4 -14,7 -24,7z"/>
  </g>
 </g>
</svg>
