<?xml version="1.0" standalone="no"?>
<!DOCTYPE svg PUBLIC "-//W3C//DTD SVG 20010904//EN"
 "http://www.w3.org/TR/2001/REC-SVG-20010904/DTD/svg10.dtd">
<svg version="1.0" xmlns="http://www.w3.org/2000/svg"
 width="400.000000pt" height="400.000000pt" viewBox="0 0 400.000000 400.000000"
 preserveAspectRatio="xMidYMid meet">
<metadata>
Created by potrace 1.11, written by Peter Selinger 2001-2013
</metadata>
<g transform="translate(0.000000,400.000000) scale(0.100000,-0.100000)"
fill="#000000" stroke="none">
<path d="M1819 3996 c-2 -2 -32 -7 -67 -10 -134 -13 -313 -58 -472 -119 -448
-171 -832 -513 -1052 -937 -110 -209 -191 -470 -215 -688 -15 -129 -6 -542 11
-571 2 -3 7 -24 10 -46 23 -148 112 -403 193 -554 263 -490 686 -836 1213
-992 69 -20 127 -35 128 -34 2 2 4 410 5 907 l2 903 60 32 c33 18 63 33 68 33
4 0 7 -427 7 -950 l0 -950 23 -5 c12 -2 43 -7 70 -9 39 -4 47 -2 48 12 0 9 0
518 0 1129 0 1102 0 1113 -21 1159 -24 55 -33 63 -122 109 -36 19 -69 38 -71
43 -5 7 328 192 359 200 7 2 77 -32 156 -75 79 -43 160 -87 181 -98 20 -11 37
-22 37 -25 0 -3 -34 -22 -74 -44 -41 -21 -84 -49 -96 -61 -49 -52 -48 -38 -48
-1232 l-1 -1120 42 4 c23 2 56 6 72 8 l30 5 0 947 c0 902 1 948 18 945 10 -2
39 -16 65 -31 l47 -27 3 -902 c2 -865 3 -902 20 -902 33 0 221 60 330 106 417
174 771 497 990 905 107 196 195 477 220 698 14 128 5 541 -12 570 -2 3 -7 24
-10 46 -27 170 -126 439 -226 614 -311 544 -839 900 -1475 997 -45 7 -440 16
-446 10z m411 -181 c490 -66 926 -317 1223 -703 154 -200 293 -501 337 -727
42 -219 49 -499 16 -680 -9 -49 -19 -103 -22 -119 -24 -138 -156 -443 -259
-595 -161 -240 -372 -438 -613 -576 -86 -49 -246 -124 -299 -140 l-23 -6 0
745 c0 410 3 746 7 746 3 0 34 -15 67 -34 34 -18 106 -57 161 -86 55 -30 114
-62 130 -72 38 -23 58 -23 78 0 13 14 16 44 15 167 0 83 1 175 1 206 l1 57
113 -1 c158 -1 178 5 226 60 23 25 42 53 42 62 7 81 3 592 -4 614 -11 34 -69
94 -103 107 -14 6 -81 10 -150 10 l-124 0 -1 38 c0 20 0 132 0 249 1 207 1
212 -21 227 -20 14 -28 12 -127 -41 -58 -30 -110 -59 -116 -63 -5 -4 -53 -30
-105 -58 -52 -28 -221 -118 -375 -201 -154 -83 -291 -151 -304 -151 -13 0 -67
23 -120 51 -53 29 -132 71 -176 95 -44 23 -100 54 -125 67 -25 14 -74 40 -110
59 -36 19 -144 78 -240 130 -254 138 -234 129 -256 113 -18 -12 -19 -30 -19
-262 l0 -248 -135 -5 c-89 -3 -144 -10 -160 -19 -34 -19 -69 -58 -81 -90 -6
-15 -10 -150 -10 -323 0 -318 1 -328 53 -374 45 -41 67 -46 202 -47 l131 -1
-1 -205 c0 -168 2 -209 14 -223 8 -10 22 -18 29 -18 8 0 102 47 209 105 106
58 196 105 199 105 3 0 5 -335 5 -745 0 -410 -2 -745 -5 -745 -15 0 -142 53
-214 90 -368 185 -648 464 -829 827 -45 89 -124 295 -137 357 -2 11 -6 32 -10
46 -11 50 -16 76 -21 115 -3 22 -9 65 -14 95 -15 97 -4 403 19 525 126 669
604 1213 1247 1419 119 38 119 38 269 61 55 9 107 17 115 19 45 8 318 2 400
-9z m-865 -806 c105 -57 212 -115 238 -129 l47 -25 -271 -3 c-150 -1 -274 -1
-276 2 -4 3 -6 157 -4 259 l1 37 38 -19 c20 -10 123 -65 227 -122z m1540 -6
l0 -148 -280 -2 c-280 -2 -280 -2 -245 17 19 10 143 77 275 149 132 71 242
130 245 131 3 0 5 -66 5 -147z m-1938 -340 c8 -19 35 -40 80 -64 176 -92 253
-134 253 -139 -1 -3 -69 -42 -153 -86 -83 -45 -160 -93 -171 -107 -11 -15 -19
-43 -20 -66 0 -23 -5 -41 -11 -42 -16 -1 -188 -1 -205 0 -13 1 -15 36 -14 264
1 144 2 263 3 265 0 1 52 2 114 2 l112 0 12 -27z m750 21 c-6 -6 -81 -47 -193
-105 l-60 -32 -127 68 c-70 37 -127 69 -127 71 0 2 116 4 257 4 141 0 254 -3
250 -6z m1073 2 c0 -3 -57 -35 -126 -72 l-127 -67 -71 38 c-91 48 -180 97
-185 101 -2 2 111 4 252 4 142 0 257 -2 257 -4z m481 -8 c1 -7 2 -127 3 -265
1 -247 1 -253 -19 -254 -67 -2 -196 -1 -199 2 -2 2 -6 23 -9 47 -5 49 -34 85
-87 110 -34 16 -126 66 -218 119 l-44 25 166 90 c131 70 167 94 172 114 6 24
8 24 120 24 84 0 114 -3 115 -12z m-1680 -371 l114 -63 3 -71 3 -72 -67 -37
c-63 -35 -68 -37 -78 -19 -19 32 -68 85 -90 98 -18 10 -88 13 -344 17 -19 0
-32 5 -30 10 3 11 346 199 364 200 6 0 62 -28 125 -63z m1129 -31 c96 -51 176
-99 178 -105 4 -12 5 -12 -188 -13 -107 0 -144 -4 -176 -18 -39 -17 -94 -74
-94 -98 0 -7 -5 -12 -10 -12 -12 0 -123 61 -130 72 -3 4 -6 38 -5 75 l1 68
114 62 c63 34 120 62 126 63 6 0 89 -42 184 -94z m-1310 -313 c0 -18 -4 -33
-8 -33 -8 0 -107 -52 -248 -131 l-54 -30 -1 33 c-1 33 -1 148 0 179 1 14 20
16 156 16 l155 0 0 -34z m1494 -76 c0 -66 -3 -107 -9 -107 -5 0 -75 36 -155
79 -133 72 -145 81 -148 108 l-3 30 157 -1 156 -1 2 -108z"/>
</g>
</svg>
